{
    "asset" : {
        "generator" : "Khronos glTF Blender I/O v3.2.43",
        "version" : "2.0"
    },
    "scene" : 0,
    "scenes" : [
        {
            "name" : "Scene",
            "nodes" : [
                3
            ]
        }
    ],
    "nodes" : [
        {
            "mesh" : 0,
            "name" : "Icing"
        },
        {
            "mesh" : 1,
            "name" : "Icing.001"
        },
        {
            "mesh" : 2,
            "name" : "Icing.012"
        },
        {
            "children" : [
                0,
                1,
                2
            ],
            "mesh" : 3,
            "name" : "Donut",
            "rotation" : [
                0.34682896733283997,
                -0.39044833183288574,
                0.16172899305820465,
                0.8373192548751831
            ],
            "translation" : [
                0,
                0.022076347842812538,
                0
            ]
        }
    ],
    "animations" : [
        {
            "channels" : [
                {
                    "sampler" : 0,
                    "target" : {
                        "node" : 3,
                        "path" : "rotation"
                    }
                }
            ],
            "name" : "DonutAction",
            "samplers" : [
                {
                    "input" : 19,
                    "interpolation" : "LINEAR",
                    "output" : 20
                }
            ]
        },
        {
            "channels" : [
                {
                    "sampler" : 0,
                    "target" : {
                        "node" : 0,
                        "path" : "translation"
                    }
                },
                {
                    "sampler" : 1,
                    "target" : {
                        "node" : 0,
                        "path" : "rotation"
                    }
                },
                {
                    "sampler" : 2,
                    "target" : {
                        "node" : 0,
                        "path" : "scale"
                    }
                }
            ],
            "name" : "Icing",
            "samplers" : [
                {
                    "input" : 19,
                    "interpolation" : "LINEAR",
                    "output" : 21
                },
                {
                    "input" : 19,
                    "interpolation" : "LINEAR",
                    "output" : 22
                },
                {
                    "input" : 19,
                    "interpolation" : "LINEAR",
                    "output" : 23
                }
            ]
        },
        {
            "channels" : [
                {
                    "sampler" : 0,
                    "target" : {
                        "node" : 1,
                        "path" : "translation"
                    }
                },
                {
                    "sampler" : 1,
                    "target" : {
                        "node" : 1,
                        "path" : "rotation"
                    }
                },
                {
                    "sampler" : 2,
                    "target" : {
                        "node" : 1,
                        "path" : "scale"
                    }
                }
            ],
            "name" : "Icing.001",
            "samplers" : [
                {
                    "input" : 19,
                    "interpolation" : "LINEAR",
                    "output" : 24
                },
                {
                    "input" : 19,
                    "interpolation" : "LINEAR",
                    "output" : 25
                },
                {
                    "input" : 19,
                    "interpolation" : "LINEAR",
                    "output" : 26
                }
            ]
        },
        {
            "channels" : [
                {
                    "sampler" : 0,
                    "target" : {
                        "node" : 2,
                        "path" : "translation"
                    }
                },
                {
                    "sampler" : 1,
                    "target" : {
                        "node" : 2,
                        "path" : "rotation"
                    }
                },
                {
                    "sampler" : 2,
                    "target" : {
                        "node" : 2,
                        "path" : "scale"
                    }
                }
            ],
            "name" : "Icing.012",
            "samplers" : [
                {
                    "input" : 19,
                    "interpolation" : "LINEAR",
                    "output" : 27
                },
                {
                    "input" : 19,
                    "interpolation" : "LINEAR",
                    "output" : 28
                },
                {
                    "input" : 19,
                    "interpolation" : "LINEAR",
                    "output" : 29
                }
            ]
        }
    ],
    "materials" : [
        {
            "doubleSided" : true,
            "name" : "green_icing",
            "pbrMetallicRoughness" : {
                "baseColorFactor" : [
                    0.123441182076931,
                    0.8000000715255737,
                    0.09539133310317993,
                    1
                ],
                "metallicFactor" : 0,
                "roughnessFactor" : 0.22020724415779114
            }
        },
        {
            "doubleSided" : true,
            "name" : "StarSprinkle",
            "pbrMetallicRoughness" : {
                "baseColorFactor" : [
                    1,
                    0.994606077671051,
                    0.1660587340593338,
                    1
                ],
                "metallicFactor" : 0,
                "roughnessFactor" : 0.5
            }
        },
        {
            "doubleSided" : true,
            "name" : "SprinkleDeepBlue",
            "pbrMetallicRoughness" : {
                "baseColorFactor" : [
                    0.07421357929706573,
                    0.06301002949476242,
                    0.46778395771980286,
                    1
                ],
                "metallicFactor" : 0,
                "roughnessFactor" : 0.5
            }
        },
        {
            "doubleSided" : true,
            "name" : "SprinkleBlue",
            "pbrMetallicRoughness" : {
                "baseColorFactor" : [
                    0.12743771076202393,
                    0.6938719749450684,
                    0.6938719749450684,
                    1
                ],
                "metallicFactor" : 0,
                "roughnessFactor" : 0.5
            }
        },
        {
            "doubleSided" : true,
            "name" : "SprinklePurple",
            "pbrMetallicRoughness" : {
                "baseColorFactor" : [
                    0.3813260495662689,
                    0.07227186858654022,
                    0.45641112327575684,
                    1
                ],
                "metallicFactor" : 0,
                "roughnessFactor" : 0.5
            }
        },
        {
            "doubleSided" : true,
            "name" : "donut_brown",
            "pbrMetallicRoughness" : {
                "baseColorTexture" : {
                    "index" : 0
                },
                "metallicFactor" : 0,
                "roughnessFactor" : 0.5
            }
        }
    ],
    "meshes" : [
        {
            "name" : "Torus.001",
            "primitives" : [
                {
                    "attributes" : {
                        "POSITION" : 0,
                        "NORMAL" : 1
                    },
                    "indices" : 2,
                    "material" : 0
                }
            ]
        },
        {
            "name" : "Torus.152",
            "primitives" : [
                {
                    "attributes" : {
                        "POSITION" : 3,
                        "NORMAL" : 4
                    },
                    "indices" : 5,
                    "material" : 1
                }
            ]
        },
        {
            "name" : "Torus.163",
            "primitives" : [
                {
                    "attributes" : {
                        "POSITION" : 6,
                        "NORMAL" : 7
                    },
                    "indices" : 8,
                    "material" : 2
                },
                {
                    "attributes" : {
                        "POSITION" : 9,
                        "NORMAL" : 10
                    },
                    "indices" : 11,
                    "material" : 3
                },
                {
                    "attributes" : {
                        "POSITION" : 12,
                        "NORMAL" : 13
                    },
                    "indices" : 14,
                    "material" : 4
                }
            ]
        },
        {
            "name" : "Torus",
            "primitives" : [
                {
                    "attributes" : {
                        "POSITION" : 15,
                        "NORMAL" : 16,
                        "TEXCOORD_0" : 17
                    },
                    "indices" : 18,
                    "material" : 5
                }
            ]
        }
    ],
    "textures" : [
        {
            "sampler" : 0,
            "source" : 0
        }
    ],
    "images" : [
        {
            "bufferView" : 19,
            "mimeType" : "image/png",
            "name" : "donut_texture"
        }
    ],
    "accessors" : [
        {
            "bufferView" : 0,
            "componentType" : 5126,
            "count" : 12512,
            "max" : [
                0.05133729800581932,
                0.024926207959651947,
                0.049568694084882736
            ],
            "min" : [
                -0.05150912329554558,
                -0.013682250864803791,
                -0.05208510532975197
            ],
            "type" : "VEC3"
        },
        {
            "bufferView" : 1,
            "componentType" : 5126,
            "count" : 12512,
            "type" : "VEC3"
        },
        {
            "bufferView" : 2,
            "componentType" : 5123,
            "count" : 75072,
            "type" : "SCALAR"
        },
        {
            "bufferView" : 3,
            "componentType" : 5126,
            "count" : 1740,
            "max" : [
                0.04507381469011307,
                0.025264834985136986,
                0.045449286699295044
            ],
            "min" : [
                -0.05140155553817749,
                0.006830684375017881,
                -0.04913685470819473
            ],
            "type" : "VEC3"
        },
        {
            "bufferView" : 4,
            "componentType" : 5126,
            "count" : 1740,
            "type" : "VEC3"
        },
        {
            "bufferView" : 5,
            "componentType" : 5123,
            "count" : 10092,
            "type" : "SCALAR"
        },
        {
            "bufferView" : 6,
            "componentType" : 5126,
            "count" : 7144,
            "max" : [
                0.0459374375641346,
                0.02556566521525383,
                0.04492524638772011
            ],
            "min" : [
                -0.04884511977434158,
                0.006600602995604277,
                -0.04911082983016968
            ],
            "type" : "VEC3"
        },
        {
            "bufferView" : 7,
            "componentType" : 5126,
            "count" : 7144,
            "type" : "VEC3"
        },
        {
            "bufferView" : 8,
            "componentType" : 5123,
            "count" : 42240,
            "type" : "SCALAR"
        },
        {
            "bufferView" : 9,
            "componentType" : 5126,
            "count" : 4420,
            "max" : [
                0.04250863939523697,
                0.025156907737255096,
                0.04135802760720253
            ],
            "min" : [
                -0.04825754091143608,
                0.011080445721745491,
                -0.04807121306657791
            ],
            "type" : "VEC3"
        },
        {
            "bufferView" : 10,
            "componentType" : 5126,
            "count" : 4420,
            "type" : "VEC3"
        },
        {
            "bufferView" : 11,
            "componentType" : 5123,
            "count" : 26112,
            "type" : "SCALAR"
        },
        {
            "bufferView" : 12,
            "componentType" : 5126,
            "count" : 4612,
            "max" : [
                0.04166743531823158,
                0.02477242238819599,
                0.04674546793103218
            ],
            "min" : [
                -0.05091654509305954,
                0.004639096558094025,
                -0.04469181224703789
            ],
            "type" : "VEC3"
        },
        {
            "bufferView" : 13,
            "componentType" : 5126,
            "count" : 4612,
            "type" : "VEC3"
        },
        {
            "bufferView" : 14,
            "componentType" : 5123,
            "count" : 27264,
            "type" : "SCALAR"
        },
        {
            "bufferView" : 15,
            "componentType" : 5126,
            "count" : 2997,
            "max" : [
                0.049217306077480316,
                0.021123750135302544,
                0.0473209023475647
            ],
            "min" : [
                -0.04952153563499451,
                -0.020909378305077553,
                -0.04995447397232056
            ],
            "type" : "VEC3"
        },
        {
            "bufferView" : 16,
            "componentType" : 5126,
            "count" : 2997,
            "type" : "VEC3"
        },
        {
            "bufferView" : 17,
            "componentType" : 5126,
            "count" : 2997,
            "type" : "VEC2"
        },
        {
            "bufferView" : 18,
            "componentType" : 5123,
            "count" : 17280,
            "type" : "SCALAR"
        },
        {
            "bufferView" : 20,
            "componentType" : 5126,
            "count" : 301,
            "max" : [
                10.033333333333333
            ],
            "min" : [
                0.03333333333333333
            ],
            "type" : "SCALAR"
        },
        {
            "bufferView" : 21,
            "componentType" : 5126,
            "count" : 301,
            "type" : "VEC4"
        },
        {
            "bufferView" : 22,
            "componentType" : 5126,
            "count" : 301,
            "type" : "VEC3"
        },
        {
            "bufferView" : 23,
            "componentType" : 5126,
            "count" : 301,
            "type" : "VEC4"
        },
        {
            "bufferView" : 24,
            "componentType" : 5126,
            "count" : 301,
            "type" : "VEC3"
        },
        {
            "bufferView" : 25,
            "componentType" : 5126,
            "count" : 301,
            "type" : "VEC3"
        },
        {
            "bufferView" : 26,
            "componentType" : 5126,
            "count" : 301,
            "type" : "VEC4"
        },
        {
            "bufferView" : 27,
            "componentType" : 5126,
            "count" : 301,
            "type" : "VEC3"
        },
        {
            "bufferView" : 28,
            "componentType" : 5126,
            "count" : 301,
            "type" : "VEC3"
        },
        {
            "bufferView" : 29,
            "componentType" : 5126,
            "count" : 301,
            "type" : "VEC4"
        },
        {
            "bufferView" : 30,
            "componentType" : 5126,
            "count" : 301,
            "type" : "VEC3"
        }
    ],
    "bufferViews" : [
        {
            "buffer" : 0,
            "byteLength" : 150144,
            "byteOffset" : 0
        },
        {
            "buffer" : 0,
            "byteLength" : 150144,
            "byteOffset" : 150144
        },
        {
            "buffer" : 0,
            "byteLength" : 150144,
            "byteOffset" : 300288
        },
        {
            "buffer" : 0,
            "byteLength" : 20880,
            "byteOffset" : 450432
        },
        {
            "buffer" : 0,
            "byteLength" : 20880,
            "byteOffset" : 471312
        },
        {
            "buffer" : 0,
            "byteLength" : 20184,
            "byteOffset" : 492192
        },
        {
            "buffer" : 0,
            "byteLength" : 85728,
            "byteOffset" : 512376
        },
        {
            "buffer" : 0,
            "byteLength" : 85728,
            "byteOffset" : 598104
        },
        {
            "buffer" : 0,
            "byteLength" : 84480,
            "byteOffset" : 683832
        },
        {
            "buffer" : 0,
            "byteLength" : 53040,
            "byteOffset" : 768312
        },
        {
            "buffer" : 0,
            "byteLength" : 53040,
            "byteOffset" : 821352
        },
        {
            "buffer" : 0,
            "byteLength" : 52224,
            "byteOffset" : 874392
        },
        {
            "buffer" : 0,
            "byteLength" : 55344,
            "byteOffset" : 926616
        },
        {
            "buffer" : 0,
            "byteLength" : 55344,
            "byteOffset" : 981960
        },
        {
            "buffer" : 0,
            "byteLength" : 54528,
            "byteOffset" : 1037304
        },
        {
            "buffer" : 0,
            "byteLength" : 35964,
            "byteOffset" : 1091832
        },
        {
            "buffer" : 0,
            "byteLength" : 35964,
            "byteOffset" : 1127796
        },
        {
            "buffer" : 0,
            "byteLength" : 23976,
            "byteOffset" : 1163760
        },
        {
            "buffer" : 0,
            "byteLength" : 34560,
            "byteOffset" : 1187736
        },
        {
            "buffer" : 0,
            "byteLength" : 45980,
            "byteOffset" : 1222296
        },
        {
            "buffer" : 0,
            "byteLength" : 1204,
            "byteOffset" : 1268276
        },
        {
            "buffer" : 0,
            "byteLength" : 4816,
            "byteOffset" : 1269480
        },
        {
            "buffer" : 0,
            "byteLength" : 3612,
            "byteOffset" : 1274296
        },
        {
            "buffer" : 0,
            "byteLength" : 4816,
            "byteOffset" : 1277908
        },
        {
            "buffer" : 0,
            "byteLength" : 3612,
            "byteOffset" : 1282724
        },
        {
            "buffer" : 0,
            "byteLength" : 3612,
            "byteOffset" : 1286336
        },
        {
            "buffer" : 0,
            "byteLength" : 4816,
            "byteOffset" : 1289948
        },
        {
            "buffer" : 0,
            "byteLength" : 3612,
            "byteOffset" : 1294764
        },
        {
            "buffer" : 0,
            "byteLength" : 3612,
            "byteOffset" : 1298376
        },
        {
            "buffer" : 0,
            "byteLength" : 4816,
            "byteOffset" : 1301988
        },
        {
            "buffer" : 0,
            "byteLength" : 3612,
            "byteOffset" : 1306804
        }
    ],
    "samplers" : [
        {
            "magFilter" : 9729,
            "minFilter" : 9987
        }
    ],
    "buffers" : [
        {
            "byteLength" : 1310416,
            "uri" : "data:application/octet-stream;base64,"
        }
    ]
}
